<?xml version="1.0" standalone="no"?>
<!DOCTYPE svg PUBLIC "-//W3C//DTD SVG 20010904//EN"
 "http://www.w3.org/TR/2001/REC-SVG-20010904/DTD/svg10.dtd">
<svg version="1.0" xmlns="http://www.w3.org/2000/svg"
 width="800.000000pt" height="310.000000pt" viewBox="0 0 800.000000 310.000000"
 preserveAspectRatio="xMidYMid meet">

<g transform="translate(0.000000,310.000000) scale(0.100000,-0.100000)"
fill="#000000" stroke="none">
<path d="M106 1918 c-12 -48 -18 -47 237 -50 l242 -3 53 -30 c73 -40 136 -111
152 -172 15 -57 30 -77 30 -42 0 44 -58 146 -104 184 -23 19 -69 47 -102 62
-57 26 -67 28 -259 33 l-200 5 180 5 c99 3 203 1 230 -3 92 -16 201 -90 252
-173 10 -15 12 -16 12 -3 1 22 -71 103 -123 139 -88 60 -142 70 -380 70 -213
0 -214 0 -220 -22z"/>
<path d="M6819 1927 c-13 -9 34 -12 225 -11 l241 1 -230 -6 c-226 -6 -231 -7
-287 -34 -54 -26 -148 -115 -148 -140 0 -6 15 7 34 29 22 26 60 52 106 73 l71
33 227 2 227 1 3 33 3 32 -228 0 c-163 -1 -233 -4 -244 -13z"/>
<path d="M2371 1878 c1 -29 4 -41 6 -26 2 14 11 29 19 32 12 5 14 -22 14 -179
0 -112 4 -186 10 -190 7 -4 10 67 10 204 l0 211 -30 0 c-30 0 -30 -1 -29 -52z"/>
<path d="M3081 1713 c1 -167 3 -210 11 -183 6 21 8 97 6 185 -3 83 -3 158 -1
168 6 25 31 21 36 -5 3 -14 5 -9 6 15 1 35 -1 37 -29 37 l-30 0 1 -217z"/>
<path d="M4937 1896 c29 -14 70 -37 90 -53 33 -24 35 -24 18 -4 -21 24 -92 64
-135 75 -14 3 -1 -5 27 -18z"/>
<path d="M4569 1882 c-24 -16 -57 -44 -72 -62 -30 -36 -81 -129 -74 -136 2 -3
10 10 18 28 17 43 102 133 159 169 25 16 38 29 29 29 -8 0 -35 -13 -60 -28z"/>
<path d="M4690 1901 c-92 -28 -173 -97 -213 -182 -23 -49 -26 -69 -31 -224 -3
-93 -9 -201 -13 -240 -7 -60 -9 -39 -19 155 l-11 225 1 -225 1 -225 30 0 30 0
5 245 c6 277 9 291 89 363 74 67 114 81 221 81 85 0 101 -3 153 -29 68 -34
119 -81 150 -138 21 -39 22 -58 27 -282 l5 -240 30 0 30 0 1 210 c1 224 -1
230 -13 40 -8 -119 -8 -120 -14 -50 -5 60 -6 50 -9 -65 -3 -129 -4 -124 -11
90 -8 246 -12 267 -73 363 -41 64 -90 101 -162 123 -50 15 -162 18 -204 5z"/>
<path d="M2374 1625 c1 -114 5 -166 14 -180 l14 -20 -8 20 c-4 11 -10 92 -14
180 l-7 160 1 -160z"/>
<path d="M3131 1596 c-2 -136 -43 -239 -126 -315 -75 -69 -122 -85 -250 -86
-97 0 -116 3 -160 25 -59 29 -144 110 -173 166 -12 21 -21 35 -22 31 -1 -17
51 -105 85 -145 45 -51 92 -77 182 -98 181 -42 345 33 434 200 29 53 34 73 37
151 2 50 2 101 -1 115 -2 14 -5 -6 -6 -44z"/>
<path d="M6987 1573 c-15 -14 -7 -43 12 -43 23 0 34 23 18 39 -13 13 -21 14
-30 4z"/>
<path d="M7553 1553 c65 -2 168 -2 230 0 62 1 9 3 -118 3 -126 0 -177 -2 -112
-3z"/>
<path d="M802 1510 c0 -14 2 -19 5 -12 2 6 2 18 0 25 -3 6 -5 1 -5 -13z"/>
<path d="M791 1464 c0 -11 3 -14 6 -6 3 7 2 16 -1 19 -3 4 -6 -2 -5 -13z"/>
<path d="M6530 1458 c0 -32 54 -124 102 -175 67 -71 134 -102 248 -114 96 -10
370 -12 394 -3 10 4 16 18 16 35 l0 29 -242 0 c-133 0 -238 -3 -234 -7 4 -5
112 -11 239 -14 l232 -6 -245 1 -245 1 -51 27 c-69 36 -140 111 -172 180 -26
55 -42 73 -42 46z"/>
<path d="M767 1405 c-27 -56 -93 -121 -150 -146 -49 -23 -65 -24 -285 -27
l-233 -3 3 -32 3 -32 175 -3 c284 -5 393 24 473 127 24 31 49 67 56 81 l12 25
-18 -25 c-35 -51 -120 -126 -168 -149 -61 -29 -186 -38 -361 -25 l-119 9 200
5 c189 5 203 6 255 31 31 14 72 40 91 57 33 29 96 128 87 138 -3 2 -12 -12
-21 -31z"/>
<path d="M2450 1414 c0 -20 58 -100 99 -136 110 -94 310 -89 425 12 20 18 42
42 48 54 6 12 -8 4 -33 -20 -75 -71 -166 -101 -276 -91 -110 11 -195 65 -242
155 -11 20 -20 32 -21 26z"/>
<path d="M6628 1365 c6 -11 30 -38 53 -60 43 -39 43 -39 -6 15 -27 30 -51 57
-53 60 -3 3 0 -4 6 -15z"/>
<path d="M6730 1265 c0 -7 61 -37 66 -33 2 3 -12 12 -31 21 -19 9 -35 15 -35
12z"/>
</g>
</svg>
